<?xml version="1.0" encoding="UTF-8" standalone="no"?>
<!-- Created with Inkscape (http://www.inkscape.org/) -->

<svg
   width="144"
   height="48"
   version="1.1"
   viewBox="0 0 38.1 12.7"
   id="svg26"
   sodipodi:docname="logo-textLight.svg"
   xml:space="preserve"
   inkscape:version="1.4.2 (ebf0e940d0, 2025-05-08)"
   xmlns:inkscape="http://www.inkscape.org/namespaces/inkscape"
   xmlns:sodipodi="http://sodipodi.sourceforge.net/DTD/sodipodi-0.dtd"
   xmlns="http://www.w3.org/2000/svg"
   xmlns:svg="http://www.w3.org/2000/svg"
   xmlns:rdf="http://www.w3.org/1999/02/22-rdf-syntax-ns#"
   xmlns:cc="http://creativecommons.org/ns#"
   xmlns:dc="http://purl.org/dc/elements/1.1/"><defs
     id="defs26" /><sodipodi:namedview
     id="namedview26"
     pagecolor="#ffffff"
     bordercolor="#999999"
     borderopacity="1"
     inkscape:showpageshadow="2"
     inkscape:pageopacity="0"
     inkscape:pagecheckerboard="0"
     inkscape:deskcolor="#d1d1d1"
     inkscape:zoom="4.4709773"
     inkscape:cx="86.893754"
     inkscape:cy="3.1313065"
     inkscape:window-width="1920"
     inkscape:window-height="1125"
     inkscape:window-x="0"
     inkscape:window-y="0"
     inkscape:window-maximized="1"
     inkscape:current-layer="svg26" /><title
     id="title1">Penguin Launcher Logo</title><metadata
     id="metadata26"><rdf:RDF><cc:Work
         rdf:about=""><dc:title>Penguin Launcher Logo</dc:title><dc:date>19/10/2022</dc:date><dc:creator><cc:Agent><dc:title>Penguin Launcher</dc:title></cc:Agent></dc:creator><dc:contributor><cc:Agent><dc:title>AutiOne, Boba, ely, Fulmine, gon sawa, Pankakes, tobimori, Zeke</dc:title></cc:Agent></dc:contributor><dc:source>https://github.com/penguincre8te/PenguinLauncher</dc:source><dc:publisher><cc:Agent><dc:title>Penguin Launcher</dc:title></cc:Agent></dc:publisher><cc:license
           rdf:resource="http://creativecommons.org/licenses/by-sa/4.0/" /></cc:Work><cc:License
         rdf:about="http://creativecommons.org/licenses/by-sa/4.0/"><cc:permits
           rdf:resource="http://creativecommons.org/ns#Reproduction" /><cc:permits
           rdf:resource="http://creativecommons.org/ns#Distribution" /><cc:requires
           rdf:resource="http://creativecommons.org/ns#Notice" /><cc:requires
           rdf:resource="http://creativecommons.org/ns#Attribution" /><cc:permits
           rdf:resource="http://creativecommons.org/ns#DerivativeWorks" /><cc:requires
           rdf:resource="http://creativecommons.org/ns#ShareAlike" /></cc:License></rdf:RDF></metadata><g
     inkscape:label="Layer 1"
     id="layer1-3"
     transform="translate(-1.1846006,-0.12434087)"><g
       id="g531"
       transform="matrix(0.1353646,0,0,0.1353646,15.301582,0.52916663)" /><g
       aria-label="Prism Launcher"
       id="text637"
       style="font-weight:bold;font-size:4.7625px;line-height:1;font-family:poppins;-inkscape-font-specification:'poppins Bold';stroke-width:0.264583"><path
         d="m 15.225712,7.2580497 h -0.814387 v 3.3432753 h 1.881187 V 9.9726746 h -1.0668 z"
         style="fill:#14191e"
         id="path429" /><path
         d="m 16.521109,9.2678246 c 0,0.8382004 0.519112,1.3716004 1.166812,1.3716004 0.395288,0 0.676275,-0.180975 0.823913,-0.414338 v 0.376238 h 0.814387 V 7.9438497 h -0.814387 v 0.3762374 c -0.142875,-0.2333624 -0.423863,-0.4143374 -0.81915,-0.4143374 -0.652463,0 -1.171575,0.5238749 -1.171575,1.3620749 z m 1.990725,0.00476 c 0,0.4238625 -0.271463,0.657225 -0.581025,0.657225 -0.3048,0 -0.581025,-0.238125 -0.581025,-0.6619875 0,-0.4238625 0.276225,-0.6524625 0.581025,-0.6524625 0.309562,0 0.581025,0.2333625 0.581025,0.657225 z"
         style="fill:#14191e"
         id="path431" /><path
         d="M 22.540912,10.601325 V 7.9438497 h -0.814387 v 1.4430374 c 0,0.36195 -0.200025,0.561975 -0.51435,0.561975 -0.3048,0 -0.509588,-0.200025 -0.509588,-0.561975 V 7.9438497 h -0.809624 v 1.5525749 c 0,0.7096124 0.414337,1.1334754 1.028699,1.1334754 0.357188,0 0.642938,-0.161925 0.804863,-0.390525 v 0.36195 z"
         style="fill:#14191e"
         id="path433" /><path
         d="m 24.960261,9.1582871 v 1.4430379 h 0.809625 V 9.0487496 c 0,-0.714375 -0.409575,-1.1334749 -1.023937,-1.1334749 -0.357188,0 -0.642938,0.1571625 -0.804863,0.381 v -0.352425 h -0.814387 v 2.6574753 h 0.814387 V 9.1582871 c 0,-0.36195 0.200025,-0.561975 0.509588,-0.561975 0.309562,0 0.509587,0.200025 0.509587,0.561975 z"
         style="fill:#14191e"
         id="path435" /><path
         d="m 26.174697,9.2725871 c 0,0.8429629 0.55245,1.3668379 1.3335,1.3668379 0.66675,0 1.138238,-0.385763 1.27635,-1.0001254 h -0.866775 c -0.07144,0.1952625 -0.200025,0.3048 -0.423862,0.3048 -0.290513,0 -0.490538,-0.2286 -0.490538,-0.6715125 0,-0.4429125 0.200025,-0.6715125 0.490538,-0.6715125 0.223837,0 0.357187,0.1190625 0.423862,0.3048 h 0.866775 c -0.138112,-0.6334124 -0.6096,-1.0001249 -1.27635,-1.0001249 -0.78105,0 -1.3335,0.5286374 -1.3335,1.3668374 z"
         style="fill:#14191e"
         id="path437" /><path
         d="M 29.217933,7.0770747 V 10.601325 H 30.03232 V 9.1582871 c 0,-0.36195 0.200025,-0.561975 0.509588,-0.561975 0.309562,0 0.509587,0.200025 0.509587,0.561975 V 10.601325 H 31.86112 V 9.0487496 c 0,-0.714375 -0.404812,-1.1334749 -1.00965,-1.1334749 -0.366712,0 -0.657225,0.1571625 -0.81915,0.3857625 V 7.0770747 Z"
         style="fill:#14191e"
         id="path439" /><path
         d="m 33.599433,8.5582121 c 0.271462,0 0.500062,0.1666875 0.500062,0.4572 H 33.08032 c 0.04762,-0.295275 0.252413,-0.4572 0.519113,-0.4572 z m 1.271587,1.16205 h -0.866775 c -0.06667,0.142875 -0.195262,0.257175 -0.423862,0.257175 -0.261938,0 -0.47625,-0.161925 -0.504825,-0.5095875 h 1.843087 c 0.0095,-0.080963 0.01429,-0.161925 0.01429,-0.238125 0,-0.809625 -0.547688,-1.3239749 -1.323975,-1.3239749 -0.790575,0 -1.343025,0.5238749 -1.343025,1.3668374 0,0.8429629 0.561975,1.3668379 1.343025,1.3668379 0.661987,0 1.133475,-0.40005 1.262062,-0.9191629 z"
         style="fill:#14191e"
         id="path441" /><path
         d="m 36.17594,9.3678371 c 0,-0.4572 0.223837,-0.59055 0.6096,-0.59055 h 0.223837 V 7.9152747 c -0.357187,0 -0.6477,0.1905 -0.833437,0.4714874 V 7.9438497 h -0.814388 v 2.6574753 h 0.814388 z"
         style="fill:#14191e"
         id="path443" /><text
         xml:space="preserve"
         style="font-style:normal;font-variant:normal;font-weight:600;font-stretch:normal;font-size:4.49349px;font-family:FreeSans;-inkscape-font-specification:'FreeSans, Semi-Bold';font-variant-ligatures:normal;font-variant-caps:normal;font-variant-numeric:normal;font-variant-east-asian:normal;text-align:start;writing-mode:lr-tb;direction:ltr;text-anchor:start;fill:#3dddff;fill-opacity:1;stroke-width:0.0989542;stroke-dasharray:none"
         x="14.051847"
         y="5.6359115"
         id="text1"><tspan
           sodipodi:role="line"
           id="tspan1"
           x="14.051847"
           y="5.6359115">Penguin</tspan></text></g><g
       id="layer7-6"
       inkscape:label="penguin"
       transform="matrix(0.06966746,0,0,0.06966746,-1.0139557,-3.5149856)"><g
         inkscape:groupmode="layer"
         id="layer4-7"
         inkscape:label="foot"><ellipse
           style="fill:#000000;fill-opacity:1;stroke-width:0.293075"
           id="path7-2-5"
           cx="103.21879"
           cy="215.72067"
           rx="20.663881"
           ry="11.720777" /><ellipse
           style="fill:#ffff00;fill-opacity:1;stroke-width:0.258577"
           id="path7-3"
           cx="103.17348"
           cy="215.85724"
           rx="18.627937"
           ry="10.121034" /></g><g
         inkscape:label="beak"
         inkscape:groupmode="layer"
         id="layer1-9"><path
           id="path5-5"
           style="fill:#ffff00;stroke-width:0.265406"
           inkscape:transform-center-x="-2.2230317"
           inkscape:transform-center-y="1.2079733"
           d="m 139.95503,120.84166 -1.97937,-12.20589 -2.51898,-12.881482 17.53612,11.122842 z"
           sodipodi:nodetypes="ccccc" /><path
           style="fill:#000000;fill-opacity:1;stroke-width:0.264583"
           d="m 153.82227,107.31786 c 0,-0.48753 -0.91926,-0.44562 -0.95976,-0.95975 l -12.47679,13.43654 c -0.47654,1.00263 0.78526,0.54135 0.78526,0.87251"
           id="path6-6" /><path
           style="fill:#000000;fill-opacity:1;stroke-width:0.301884"
           d="m 152.96799,107.88796 c 0.53949,-0.10996 0.2904,-1.14066 0.85039,-1.30243 L 136.19856,95.497643 c -1.21456,-0.313128 -0.42587,1.010613 -0.79232,1.085289"
           id="path6-4-29" /><path
           style="fill:#000000;fill-opacity:1;stroke-width:0.245132"
           d="m 153.42036,108.08796 c 0.29396,-0.33922 -0.25539,-1.01401 0.0316,-1.40272 l -15.21468,-0.20608 c -0.87622,0.33265 0.12127,0.97798 -0.0784,1.20838"
           id="path6-4-2-1" /><path
           style="fill:#000000;fill-opacity:1;stroke-width:0.354903"
           d="m 140.59888,120.31414 c 0.53202,0.3099 1.1819,-0.82734 1.77355,-0.54943 l -5.22032,-23.614411 c -0.73344,-1.213042 -1.18492,0.604578 -1.54627,0.394038"
           id="path6-4-2-4-2" /></g><ellipse
         style="fill:#000000;fill-opacity:1;stroke-width:0.232168"
         id="path4-7"
         cx="103.2744"
         cy="135.76146"
         rx="39.058193"
         ry="76.431252"
         inkscape:label="penguin  body" /><g
         inkscape:groupmode="layer"
         id="layer2-0"
         inkscape:label="on penguin"><ellipse
           style="fill:#ffffff;fill-opacity:1;stroke-width:0.273523"
           id="path11-9"
           cx="103.12984"
           cy="149.0235"
           rx="17.97356"
           ry="31.235605" /><g
           inkscape:groupmode="layer"
           id="layer3-3"
           inkscape:label="eyes"><ellipse
             style="fill:#ffffff;fill-opacity:1;stroke-width:0.264583"
             id="path9-6"
             cx="111.29828"
             cy="83.658791"
             rx="10.118025"
             ry="9.8712444" /><ellipse
             style="fill:#000000;fill-opacity:1;stroke-width:0.264583"
             id="path10-0"
             cx="111.73014"
             cy="84.028961"
             rx="2.1593344"
             ry="2.0976393" /></g><g
           inkscape:groupmode="layer"
           id="layer5-6"
           inkscape:label="eyes 1" /><g
           inkscape:groupmode="layer"
           id="layer6-2"
           inkscape:label="eyes 2" /></g></g></g></svg>
